<?xml version="1.0" encoding="UTF-8"?>
<svg width="16px" height="16px" viewBox="0 0 16 16" version="1.1" xmlns="http://www.w3.org/2000/svg" xmlns:xlink="http://www.w3.org/1999/xlink">
    <!-- Generator: Sketch 52 (66869) - http://www.bohemiancoding.com/sketch -->
    <title>bone</title>
    <desc>Created with Sketch.</desc>
    <g id="bone" stroke="none" stroke-width="1" fill="none" fill-rule="evenodd">
        <g id="bone-(1)" transform="translate(8.000000, 8.500000) rotate(-45.000000) translate(-8.000000, -8.500000) translate(3.000000, 6.000000)" fill="#F6993F">
            <path d="M3,3.5 C3,4.32842712 2.32842712,5 1.5,5 C0.671572875,5 2.22044605e-16,4.32842712 0,3.5 C2.22044605e-16,3.115 0.765,2.765 1,2.5 C0.765,2.235 2.22044605e-16,1.885 2.22044605e-16,1.5 C-2.22044605e-16,0.671572875 0.671572875,0 1.5,0 C1.89782473,0 2.2793556,0.158035261 2.56066017,0.439339828 C2.84196474,0.720644396 3,1.10217527 3,1.5 C3.665,1.54 4.335,1.585 5,1.585 C5.665,1.585 6.335,1.54 7,1.5 C7,0.671572875 7.67157288,0 8.5,0 C9.32842712,0 10,0.671572875 10,1.5 C10,1.885 9.235,2.235 9,2.5 C9.235,2.765 10,3.115 10,3.5 C10,4.32842712 9.32842712,5 8.5,5 C7.67157288,5 7,4.32842712 7,3.5 C6.335,3.46 5.665,3.415 5,3.415 C4.335,3.415 3.665,3.46 3,3.5 Z" id="Path"></path>
        </g>
    </g>
</svg>