<svg viewBox="0 0 235 294" xmlns="http://www.w3.org/2000/svg"><path d="m112.502 203.425v31.115c0 7.959-3.95 15.279-10.515 19.694l-52.285 34.858c-3.776 2.44-8.307 3.776-13.013 3.776a23.77 23.77 0 0 1 -19.752-10.515c-3.485-5.287-4.764-11.561-3.544-17.777s4.822-11.56 10.11-15.047l36.772-24.515a11.168 11.168 0 0 0 4.997-9.295v-37.546c-5.925-2.765-13.458-6.096-19.752-8.292a36.58 36.58 0 0 1 -2.357-.909l-26.69-9.431c-12.317-4.357-18.766-17.893-14.409-30.21l5.81-16.44c3.311-9.412 12.316-15.744 22.308-15.744 1.278 0 2.615.117 3.893.349l2.033.349 15.337-43.34c3.37-9.411 12.316-15.801 22.308-15.801 2.673 0 5.345.464 7.901 1.394l16.441 5.81c4.648 1.626 8.598 4.647 11.444 8.655l1.221 1.744 1.917-.988a23.805 23.805 0 0 1 7.436-2.44l3.66-.523-1.86-3.137a32.294 32.294 0 0 1 -4.53-16.441c0-17.835 14.523-32.36 32.358-32.36.523 0 1.045 0 1.568.059 16.5.755 30.036 14.292 30.791 30.79.407 8.947-2.73 17.429-8.947 23.877-6.158 6.449-14.523 10.05-23.412 10.05h-.522l-4.706-.057 26.607 39.91h39.156c12.897 0 23.702 10.284 24.11 22.89.348 10.34-5.985 19.636-15.745 23.122l-1.626.58v82.843c0 1.685-.639 3.253-1.8 4.415-1.163 1.163-2.732 1.8-4.416 1.8h-.29c-3.254-.174-5.927-3.078-5.927-6.506v-81.797h-46.069c-7.959 0-15.278-3.95-19.694-10.515l-9.876-14.814-10.05 25.155 50.252 25.097c8.075 4.009 13.071 12.142 13.071 21.204v70.876c0 12.838-10.457 23.47-23.238 23.645h-.406c-13.072 0-23.703-10.806-23.703-24.11v-55.772zm37.472-190.573c-.523 0-1.104 0-1.626.058-9.645.755-17.429 8.598-18.242 18.242-.465 5.635 1.394 10.98 5.228 15.104a19.957 19.957 0 0 0 14.64 6.39c.523 0 1.104 0 1.626-.057 9.645-.756 17.43-8.598 18.242-18.242.465-5.635-1.394-10.98-5.228-15.104a20.053 20.053 0 0 0 -14.64-6.391zm-76.046 38.343c-4.706 0-8.947 3.02-10.515 7.436l-15.337 43.338 35.031 12.432 18.474-46.185v-.523c-.174-4.59-3.137-8.54-7.436-10.05l-16.44-5.81c-1.279-.406-2.499-.638-3.777-.638zm-43.629 58.5c-4.706 0-8.947 3.022-10.574 7.437l-5.809 16.44a11.171 11.171 0 0 0 .465 8.54c1.278 2.673 3.544 4.706 6.332 5.752l32.882 11.619c1.22.407 2.44.639 3.717.639 4.067 0 7.785-2.208 9.76-5.752l.06-.116 11.27-28.176-44.444-15.744c-1.16-.464-2.38-.638-3.659-.638zm48.218 49.73c-2.033 5.345.35 11.503 5.461 14l60.07 30.036c2.15 1.045 3.427 3.195 3.427 5.577v60.128c0 2.962 1.163 5.809 3.254 7.9a11.167 11.167 0 0 0 7.901 3.253h.581c5.984-.29 10.631-5.286 10.631-11.444v-70.645c0-4.24-2.382-8.075-6.158-9.992l-55.364-27.652c-2.905-1.453-4.183-4.94-3.02-7.901l16.614-41.48a6.257 6.257 0 0 1 5.17-3.892c.233 0 .407-.058.64-.058 2.091 0 4.008 1.045 5.17 2.788l16.498 24.748a11.168 11.168 0 0 0 9.296 4.996h52.285c3.021 0 5.983-1.278 8.075-3.486 2.15-2.265 3.195-5.17 3.08-8.25-.292-5.983-5.288-10.63-11.446-10.63h-42.699c-2.092 0-4.009-1.046-5.17-2.79l-29.687-44.5c-2.09-3.195-5.46-4.995-9.237-4.995a11.211 11.211 0 0 0 -10.05 6.157l-.058.117-29.745 74.303c-4.24 10.514-5.287 13.245-5.577 14.117l.058-.406zm-.755 60.94c0 4.997-2.497 9.645-6.68 12.434l-40.667 27.07c-2.498 1.687-4.183 4.185-4.764 7.089a11.12 11.12 0 0 0 1.685 8.424 11.166 11.166 0 0 0 9.295 4.996c2.208 0 4.357-.64 6.158-1.86l52.286-34.856a11.172 11.172 0 0 0 4.996-9.296v-38.806l-22.367-11.212v36.018h.058z" fill-rule="evenodd"/></svg>