<svg viewBox="0 0 707 707" xmlns="http://www.w3.org/2000/svg" xmlns:xlink="http://www.w3.org/1999/xlink"><mask id="a" fill="#fff"><path d="m173.936 353.215c0-99.014 80.265-179.28 179.279-179.28s179.281 80.266 179.281 179.28-80.267 179.279-179.281 179.279-179.279-80.265-179.279-179.279zm698.436-128.551c26.959 26.95 41.805 62.784 41.805 100.899 0 38.099-14.838 73.923-41.782 100.875-26.951 26.958-62.783 41.805-100.898 41.805-38.1 0-73.924-14.84-100.875-41.782-26.959-26.95-41.806-62.784-41.806-100.898 0-6.96.478-13.626 1.461-20.383l12.648 1.84a127.357 127.357 0 0 0 -1.328 18.543c0 71.626 58.273 129.899 129.9 129.899s129.899-58.273 129.899-129.9-58.272-129.9-129.899-129.9c-28.648 0-55.815 9.138-78.562 26.424-22.031 16.74-38.415 40.49-46.134 66.87l-12.267-3.588c8.482-28.987 26.476-55.074 50.667-73.458 24.99-18.99 54.831-29.028 86.296-29.028 38.099 0 73.924 14.839 100.875 41.782zm-432.596-78.614a6.372 6.372 0 0 1 -6.39-6.39v-9.47a6.373 6.373 0 0 1 6.39-6.39 6.373 6.373 0 0 1 6.391 6.39v9.47a6.373 6.373 0 0 1 -6.39 6.39zm58.444 58.443a6.372 6.372 0 0 1 -6.39-6.39 6.372 6.372 0 0 1 6.39-6.391h9.469a6.373 6.373 0 0 1 6.39 6.39 6.373 6.373 0 0 1 -6.39 6.39h-9.47zm-7.843-29.222c-2.266 0-4.415-1.22-5.52-3.195a6.106 6.106 0 0 1 -.638-4.822 6.651 6.651 0 0 1 2.963-3.892l8.19-4.764a6.298 6.298 0 0 1 3.196-.87c2.266 0 4.416 1.22 5.519 3.194a6.106 6.106 0 0 1 .64 4.822 6.651 6.651 0 0 1 -2.963 3.892l-8.192 4.764c-.93.581-2.033.871-3.195.871zm-21.379-21.379a6.302 6.302 0 0 1 -3.195-.87c-1.452-.873-2.556-2.209-2.963-3.894s-.233-3.369.639-4.82l4.764-8.193c1.162-1.975 3.253-3.195 5.519-3.195 1.104 0 2.207.29 3.195.871 1.453.872 2.556 2.208 2.963 3.893a6.107 6.107 0 0 1 -.639 4.822l-4.764 8.191c-1.104 1.975-3.253 3.195-5.519 3.195zm-58.443 0c-2.266 0-4.416-1.22-5.519-3.195l-4.764-8.19c-1.743-3.023-.697-6.973 2.324-8.716a6.292 6.292 0 0 1 3.195-.87c2.265 0 4.415 1.22 5.52 3.194l4.763 8.192a6.104 6.104 0 0 1 .64 4.821 6.653 6.653 0 0 1 -2.964 3.893c-.929.58-2.033.871-3.195.871zm-21.379 21.38a6.292 6.292 0 0 1 -3.195-.872l-8.192-4.764c-1.452-.87-2.556-2.208-2.963-3.892-.406-1.685-.232-3.37.64-4.822 1.161-1.975 3.253-3.195 5.52-3.195 1.102 0 2.206.29 3.193.871l8.192 4.764c1.452.871 2.556 2.207 2.963 3.892a6.106 6.106 0 0 1 -.639 4.822c-1.104 1.975-3.253 3.195-5.519 3.195zm109.392 63.148a6.294 6.294 0 0 1 -3.195-.872l-8.192-4.763c-1.452-.872-2.556-2.208-2.963-3.893a6.107 6.107 0 0 1 .64-4.822c1.162-1.975 3.253-3.195 5.52-3.195 1.103 0 2.206.291 3.194.872l8.191 4.764c1.452.871 2.556 2.207 2.963 3.892a6.102 6.102 0 0 1 -.639 4.822c-1.104 1.975-3.195 3.195-5.519 3.195z" fill="#fff" fill-rule="evenodd"/></mask><g fill="#020303" fill-rule="evenodd"><path d="m353.215 31.952c-43.373 0-85.445 8.494-125.048 25.244-38.255 16.18-72.613 39.345-102.119 68.852-29.507 29.506-52.672 63.864-68.852 102.119-16.75 39.603-25.244 81.676-25.244 125.049s8.493 85.445 25.244 125.048c16.18 38.254 39.345 72.613 68.852 102.12 29.506 29.505 63.864 52.67 102.12 68.85 39.602 16.75 81.674 25.245 125.047 25.245s85.445-8.494 125.048-25.244c38.256-16.18 72.614-39.346 102.12-68.851 29.506-29.507 52.671-63.866 68.852-102.12 16.75-39.603 25.243-81.675 25.243-125.048s-8.493-85.446-25.243-125.05c-16.18-38.254-39.346-72.612-68.852-102.118-29.506-29.507-63.864-52.672-102.12-68.852-39.603-16.75-81.675-25.244-125.048-25.244zm0 655.308c-45.093 0-88.84-8.833-130.027-26.253-39.778-16.826-75.502-40.91-106.178-71.587-30.675-30.675-54.76-66.4-71.586-106.177-17.42-41.187-26.253-84.935-26.253-130.027 0-45.094 8.833-88.841 26.253-130.028 16.826-39.778 40.911-75.502 71.586-106.178 30.676-30.675 66.4-54.761 106.178-71.585 41.187-17.421 84.934-26.254 130.027-26.254s88.84 8.833 130.027 26.254c39.778 16.824 75.503 40.91 106.178 71.585 30.676 30.676 54.761 66.4 71.587 106.178 17.42 41.187 26.252 84.934 26.252 130.028 0 45.092-8.833 88.84-26.252 130.027-16.826 39.778-40.91 75.502-71.587 106.177-30.675 30.677-66.4 54.76-106.178 71.587-41.187 17.42-84.934 26.253-130.027 26.253zm0-674.479c-45.96 0-90.544 9-132.51 26.75-40.538 17.146-76.947 41.694-108.213 72.961-31.268 31.267-55.815 67.675-72.96 108.213-17.75 41.966-26.752 86.549-26.752 132.511 0 45.961 9.001 90.544 26.751 132.509 17.146 40.538 41.693 76.948 72.961 108.214 31.266 31.267 67.675 55.815 108.213 72.961 41.966 17.75 86.55 26.75 132.51 26.75 45.961 0 90.544-9 132.51-26.75 40.538-17.146 76.947-41.694 108.214-72.961 31.267-31.266 55.815-67.676 72.961-108.214 17.75-41.965 26.75-86.548 26.75-132.509 0-45.962-9-90.545-26.75-132.511-17.146-40.538-41.694-76.946-72.96-108.213-31.268-31.267-67.677-55.815-108.215-72.961-41.966-17.75-86.549-26.75-132.51-26.75zm0 693.649c-47.68 0-93.939-9.339-137.489-27.759-42.06-17.79-79.835-43.258-112.272-75.695-32.436-32.436-57.904-70.21-75.694-112.271-18.42-43.55-27.76-89.809-27.76-137.489 0-47.681 9.34-93.94 27.76-137.49 17.79-42.061 43.258-79.835 75.694-112.272 32.437-32.436 70.211-57.903 112.272-75.694 43.55-18.42 89.808-27.76 137.49-27.76 47.68 0 93.938 9.34 137.488 27.76 42.061 17.791 79.836 43.258 112.272 75.694 32.437 32.437 57.905 70.211 75.695 112.272 18.42 43.55 27.76 89.809 27.76 137.49 0 47.68-9.34 93.939-27.76 137.489-17.79 42.061-43.258 79.835-75.695 112.271-32.436 32.437-70.21 57.905-112.272 75.695-43.55 18.42-89.808 27.759-137.489 27.759zm-120.259-109.914c-.704 0-1.418-.16-2.09-.499-52.843-26.657-96.25-70.693-122.224-123.996a4.648 4.648 0 0 1 8.356-4.07c25.089 51.485 67.015 94.02 118.055 119.767a4.647 4.647 0 0 1 -2.097 8.798zm240.519 0a4.648 4.648 0 0 1 -2.097-8.798c51.039-25.747 92.966-68.28 118.056-119.768a4.647 4.647 0 1 1 8.355 4.072c-25.975 53.303-69.381 97.34-122.224 123.995a4.627 4.627 0 0 1 -2.09.5zm120.14-360.186a4.647 4.647 0 0 1 -4.184-2.616c-22.516-46.302-57.81-84.692-102.065-111.018a4.648 4.648 0 1 1 4.752-7.989c45.82 27.257 82.36 67.003 105.673 114.942a4.648 4.648 0 0 1 -4.177 6.68zm-480.74 0a4.647 4.647 0 0 1 -4.175-6.683c23.32-47.898 59.873-87.65 105.711-114.958a4.648 4.648 0 1 1 4.757 7.986c-44.277 26.379-79.587 64.776-102.112 111.04a4.648 4.648 0 0 1 -4.182 2.615zm172.331 355.234a.771.771 0 0 1 .936-.564l16.339 4.053a.772.772 0 0 1 .564.936l-1.068 4.302a.772.772 0 0 1 -.935.564l-10.932-2.712-1.215 4.894 8.999 2.231a.8.8 0 0 1 .563.937l-1.067 4.301a.773.773 0 0 1 -.936.565l-8.998-2.234-1.322 5.33 10.932 2.711a.772.772 0 0 1 .564.936l-1.067 4.301a.771.771 0 0 1 -.936.564l-16.338-4.053a.771.771 0 0 1 -.564-.935zm17.315 28.567 2.402-3.045c.403-.473 1.154-.275 1.404-.031.15.105 2.715 2.68 5.367 3.088 1.608.248 2.928-.578 3.143-1.985.26-1.688-.948-3.191-3.514-4.696-3.246-1.897-7.173-5.258-6.43-10.08.611-3.98 4.324-7.522 10.513-6.57 4.18.642 7.068 3.267 8.137 4.337.44.355.248 1.066.043 1.323l-2.525 2.779c-.35.4-1.129.65-1.447.313-.33-.257-2.925-2.918-5.376-3.295-1.447-.224-2.68.575-2.847 1.659-.229 1.488.803 2.798 3.78 4.573 2.944 1.728 7.55 4.945 6.71 10.41-.637 4.14-4.857 7.77-10.765 6.862-5.224-.804-7.784-3.42-8.566-4.486-.34-.464-.436-.642-.029-1.156zm29.748-14.883-5.8-.406a.77.77 0 0 1 -.717-.825l.31-4.421a.772.772 0 0 1 .824-.717l18.011 1.263a.77.77 0 0 1 .716.824l-.309 4.422a.771.771 0 0 1 -.825.715l-5.8-.405-1.519 21.66a.799.799 0 0 1 -.824.718l-4.868-.341a.8.8 0 0 1 -.717-.825zm21.783 21.917c2.244-3.176 7.958-11.565 10.222-15.311.499-.833.985-1.99.944-3.127-.057-1.545-1.41-2.88-3.685-2.796-1.666.06-3.126 1.297-3.867 2.177a.785.785 0 0 1 -1.137.042l-2.573-2.43c-.294-.232-.352-.718-.08-1.054 0 0 3.147-4.104 7.983-4.281 5.812-.214 9.36 3.359 9.527 7.87.079 2.155-.485 3.396-1.391 5.342-1.215 2.365-4.388 6.836-6.2 9.588l7.153-.263a.8.8 0 0 1 .8.745l.135 3.656a.8.8 0 0 1 -.744.8l-16.256.599a.773.773 0 0 1 -.801-.744zm36.493-15.004c-.675-5.284-2.428-8.095-4.888-7.78-2.46.314-3.45 3.474-2.776 8.759.68 5.324 2.426 8.094 4.888 7.779 2.46-.314 3.456-3.434 2.776-8.758zm-14.159 1.808c-1.128-8.834 1.95-14.597 8.524-15.437 6.575-.84 11.001 3.965 12.13 12.8 1.127 8.834-1.95 14.597-8.525 15.436-6.575.84-11-3.965-12.129-12.8zm27.522-9.447-3.822.8c-.398.081-.791-.21-.874-.608l-.524-2.508c-.033-.16.02-.503.115-.648l4.864-5.752 3.662-.763c.399-.084.792.208.875.606l5.335 25.56c.084.396-.16.821-.558.904l-4.42.923a.774.774 0 0 1 -.914-.599l-3.74-17.915zm15.09 15.048 4.069-23.18-9.085 2.542a.798.798 0 0 1 -.952-.535l-.986-3.524a.798.798 0 0 1 .535-.953l16.525-4.625a.8.8 0 0 1 .952.535l.076.275-4.857 27.751c-.196 1.11-.7 1.42-1.287 1.585l-3.877 1.085c-.43.12-.871-.095-.991-.525l-.121-.43zm-120.433-200.07 2.51 6.1a5.81 5.81 0 1 1 -10.745 4.42l-6.828-16.595v31.115c0 7.959-3.95 15.279-10.515 19.694l-52.285 34.858c-3.776 2.44-8.307 3.776-13.013 3.776a23.77 23.77 0 0 1 -19.752-10.515c-3.485-5.287-4.764-11.561-3.544-17.777s4.822-11.56 10.11-15.047l36.772-24.515a11.168 11.168 0 0 0 4.997-9.295v-37.546c-5.925-2.765-13.458-6.096-19.752-8.292a36.579 36.579 0 0 1 -2.357-.909l-26.69-9.431c-12.317-4.357-18.766-17.893-14.409-30.21l5.81-16.44c3.311-9.412 12.316-15.744 22.308-15.744 1.278 0 2.615.117 3.893.349l2.033.349 15.337-43.34c3.37-9.411 12.316-15.801 22.308-15.801 2.673 0 5.345.464 7.901 1.394l16.441 5.81c4.648 1.626 8.598 4.647 11.444 8.655l1.221 1.744 1.917-.988a23.805 23.805 0 0 1 7.436-2.44l3.66-.523-1.86-3.137a32.294 32.294 0 0 1 -4.53-16.441c0-17.835 14.523-32.36 32.358-32.36.523 0 1.045 0 1.568.059 16.5.755 30.036 14.292 30.791 30.79.407 8.947-2.73 17.429-8.947 23.877-6.158 6.449-14.523 10.05-23.412 10.05h-.522l-4.706-.057 26.607 39.91h39.156c12.897 0 23.702 10.284 24.11 22.89.348 10.34-5.985 19.636-15.745 23.122l-1.626.58v82.843c0 1.685-.639 3.253-1.8 4.415-1.163 1.163-2.732 1.8-4.416 1.8h-.29c-3.254-.174-5.927-3.078-5.927-6.506v-81.797h-46.069c-7.959 0-15.278-3.95-19.694-10.515l-9.876-14.814-10.05 25.155 50.252 25.097c8.075 4.009 13.071 12.142 13.071 21.204v70.876c0 12.838-10.457 23.47-23.238 23.645h-.406c-13.072 0-23.703-10.806-23.703-24.11v-55.772l-7.304-3.661zm54.651 134.376c-27.086 0-53.365-5.307-78.107-15.771a199.632 199.632 0 0 1 -52.204-32.3l11.132-7.326c33.518 27.6 75.194 42.616 119.18 42.616 50.183 0 97.363-19.543 132.85-55.03 35.484-35.484 55.027-82.665 55.027-132.848 0-50.185-19.543-97.365-55.028-132.85-35.486-35.486-82.666-55.03-132.85-55.03s-97.364 19.544-132.85 55.03c-35.485 35.485-55.028 82.665-55.028 132.85 0 35.734 9.918 69.942 28.436 99.493l-5.198 3.45a30.338 30.338 0 0 0 -5.056 4.203 200.327 200.327 0 0 1 -15.192-29.04c-10.465-24.742-15.77-51.02-15.77-78.106 0-27.087 5.305-53.366 15.77-78.108 10.107-23.895 24.575-45.354 43-63.78 18.427-18.426 39.886-32.893 63.781-43 24.742-10.465 51.021-15.771 78.107-15.771s53.365 5.306 78.107 15.77c23.895 10.108 45.354 24.575 63.78 43 18.426 18.427 32.894 39.886 43 63.78 10.465 24.743 15.772 51.022 15.772 78.109 0 27.086-5.307 53.364-15.772 78.107-10.106 23.896-24.574 45.354-43 63.78s-39.885 32.894-63.78 43c-24.742 10.465-51.02 15.772-78.107 15.772zm203.73-286.727c11.531 27.264 17.378 56.221 17.378 86.067 0 29.847-5.847 58.804-17.378 86.067-11.137 26.331-27.079 49.976-47.383 70.28s-43.95 36.246-70.28 47.383c-27.263 11.531-56.22 17.378-86.067 17.378s-58.804-5.847-86.067-17.378c-25.904-10.956-49.202-26.573-69.283-46.409a30.208 30.208 0 0 0 17.758-.903c38.05 33.563 86.407 51.91 137.592 51.91 55.646 0 107.962-21.67 147.31-61.018s61.018-91.664 61.018-147.31c0-55.647-21.67-107.962-61.018-147.31s-91.664-61.018-147.31-61.018-107.962 21.67-147.31 61.018-61.018 91.663-61.018 147.31c0 41.038 11.8 80.257 33.77 113.807a30.32 30.32 0 0 0 -3.408 17.444 220.085 220.085 0 0 1 -25.764-45.184c-11.53-27.263-17.378-56.22-17.378-86.067 0-29.846 5.847-58.803 17.378-86.067 11.137-26.33 27.08-49.976 47.383-70.28 20.304-20.304 43.95-36.246 70.28-47.383 27.263-11.53 56.22-17.379 86.067-17.379s58.804 5.848 86.067 17.38c26.33 11.136 49.976 27.078 70.281 47.382 20.303 20.304 36.245 43.95 47.382 70.28zm-235.972-44.297c-.523 0-1.104 0-1.626.058-9.645.755-17.429 8.598-18.242 18.242-.465 5.635 1.394 10.98 5.228 15.104a19.957 19.957 0 0 0 14.64 6.39c.523 0 1.104 0 1.626-.057 9.645-.756 17.43-8.598 18.242-18.242.465-5.635-1.394-10.98-5.228-15.104a20.053 20.053 0 0 0 -14.64-6.391zm-76.046 38.343c-4.706 0-8.947 3.02-10.515 7.436l-15.337 43.338 35.031 12.432 18.474-46.185v-.523c-.174-4.59-3.137-8.54-7.436-10.05l-16.44-5.81c-1.279-.406-2.499-.638-3.777-.638zm-43.629 58.5c-4.706 0-8.947 3.022-10.574 7.437l-5.809 16.44a11.171 11.171 0 0 0 .465 8.54c1.278 2.673 3.544 4.706 6.332 5.752l32.882 11.619c1.22.407 2.44.639 3.717.639 4.067 0 7.785-2.208 9.76-5.752l.06-.116 11.27-28.176-44.444-15.744c-1.16-.464-2.38-.638-3.659-.638zm48.218 49.73c-2.033 5.345.35 11.503 5.461 14l60.07 30.036c2.15 1.045 3.427 3.195 3.427 5.577v60.128c0 2.962 1.163 5.809 3.254 7.9a11.167 11.167 0 0 0 7.901 3.253h.581c5.984-.29 10.631-5.286 10.631-11.444v-70.645c0-4.24-2.382-8.075-6.158-9.992l-55.364-27.652c-2.905-1.453-4.183-4.94-3.02-7.901l16.614-41.48a6.257 6.257 0 0 1 5.17-3.892c.233 0 .407-.058.64-.058 2.091 0 4.008 1.045 5.17 2.788l16.498 24.748a11.168 11.168 0 0 0 9.296 4.996h52.285c3.021 0 5.983-1.278 8.075-3.486 2.15-2.265 3.195-5.17 3.08-8.25-.292-5.983-5.288-10.63-11.446-10.63h-42.699c-2.092 0-4.009-1.046-5.17-2.79l-29.687-44.5c-2.09-3.195-5.46-4.995-9.237-4.995a11.211 11.211 0 0 0 -10.05 6.157l-.058.117-29.745 74.303c-4.24 10.514-5.287 13.245-5.577 14.117l.058-.406zm-.755 60.94c0 4.997-2.497 9.645-6.68 12.434l-40.667 27.07c-2.498 1.687-4.183 4.185-4.764 7.089a11.12 11.12 0 0 0 1.685 8.424 11.166 11.166 0 0 0 9.295 4.996c2.208 0 4.357-.64 6.158-1.86l52.286-34.856a11.172 11.172 0 0 0 4.996-9.296v-38.806l-22.367-11.212v36.018h.058zm-165.136-99.552 3.538 10.889a2.351 2.351 0 0 0 2.236 1.624h11.45c2.276 0 3.223 2.915 1.38 4.254l-9.262 6.729a2.351 2.351 0 0 0 -.854 2.629l3.538 10.888c.704 2.166-1.776 3.967-3.618 2.628l-9.262-6.73a2.35 2.35 0 0 0 -2.764 0l-9.262 6.73c-1.843 1.339-4.322-.462-3.619-2.628l3.54-10.888a2.354 2.354 0 0 0 -.855-2.63l-9.263-6.728c-1.842-1.34-.896-4.254 1.382-4.254h11.45a2.352 2.352 0 0 0 2.235-1.624l3.538-10.89c.703-2.165 3.768-2.165 4.472 0zm543.48-1.02 3.946 12.149a2.002 2.002 0 0 0 1.905 1.384h12.773c1.94 0 2.747 2.483 1.178 3.623l-10.334 7.509a2.003 2.003 0 0 0 -.728 2.239l3.947 12.149c.6 1.844-1.512 3.379-3.082 2.239l-10.334-7.51a2.002 2.002 0 0 0 -2.354 0l-10.334 7.51c-1.57 1.14-3.682-.395-3.083-2.24l3.947-12.148a2.001 2.001 0 0 0 -.727-2.24l-10.334-7.508c-1.57-1.14-.763-3.623 1.177-3.623h12.774c.868 0 1.637-.558 1.905-1.384l3.947-12.148c.6-1.845 3.21-1.845 3.81 0zm-388.734-248.85c-.147-.615.28-1.286.806-1.473l1.05-.376c.328-.117 1.013-.066 1.351.258l25.367 22.917.132-.047 5.094-33.805c.055-.464.553-.937.882-1.055l1.05-.376c.524-.187 1.28.061 1.558.628l23.185 41.467c.438.806.058 1.608-.73 1.89l-7.748 2.77c-.59.21-1.368-.104-1.623-.606l-10.204-19.23-.132.047-3.425 25.213c-.056.464-.53 1.003-.858 1.12l-1.183.423c-.394.141-1.036 0-1.375-.323l-18.696-17.305-.131.046 4.361 21.318c.123.55-.214 1.262-.871 1.497l-7.748 2.77c-.788.28-1.59-.1-1.764-1l-8.349-46.769zm57.346-17.801c-.38-.94.1-1.693 1.071-1.796l8.11-.863c.554-.06 1.161.367 1.351.837l8.462 22.866.277-.03 8.15-25.544c.163-.438.542-.828 1.096-.887l1.248-.133c.624-.067 1.076.236 1.26.637l13.34 23.258.278-.03 3.461-24.134c.087-.5.59-1.044 1.145-1.103l8.11-.863c.971-.103 1.6.53 1.425 1.53l-8.146 47.978c-.079.57-.59 1.045-1.144 1.104l-1.109.118c-.486.05-1.008-.244-1.26-.637l-15.702-27.003-.208.022-9.6 29.694c-.163.438-.612.837-1.097.889l-1.109.117c-.555.059-1.154-.298-1.35-.838l-18.059-45.19zm70.914-6.077c-.145-1.005.502-1.62 1.469-1.489l8.08 1.101c.554.076 1.04.634 1.113 1.136l2.752 24.225.276.037 14.018-22.855c.263-.386.725-.676 1.277-.6l1.243.17c.622.084.989.485 1.07.92l7.396 25.77.277.038 9.129-22.607c.203-.465.82-.873 1.374-.798l8.082 1.101c.967.131 1.425.897 1.018 1.827l-19.375 44.64c-.214.532-.823.872-1.376.797l-1.105-.15c-.483-.067-.92-.478-1.071-.92l-8.793-29.972-.207-.029-16.418 26.54c-.264.386-.794.665-1.278.6l-1.105-.15c-.553-.077-1.05-.566-1.112-1.138l-6.734-48.194zm93.882 17.863c6.557 2.367 10.676 6.151 13.667 11.826.4.739.117 1.525-.597 1.86l-7.032 3.466a1.22 1.22 0 0 1 -1.64-.591c-1.644-3.04-4.431-5.38-7.644-6.54-7.41-2.675-15.076 1.525-17.728 8.868-2.627 7.278.704 15.3 8.113 17.974 3.082 1.112 6.829 1.204 9.923.023.6-.228 1.453.08 1.682.681l3.149 7.288c.294.626-.08 1.455-.705 1.749-6.021 2.716-12.393 2.715-18.23.607-13.113-4.733-19.907-18.97-15.173-32.084a25.11 25.11 0 0 1 32.215-15.127z"/><path d="m877.888 431.954c28.422-28.422 44.074-66.205 44.074-106.391 0-40.187-15.652-77.97-44.074-106.392-28.421-28.421-66.205-44.073-106.391-44.073-33.707 0-65.564 10.893-92.128 31.503-25.738 19.969-44.596 48.185-53.1 79.45a151.676 151.676 0 0 0 -5.236 39.512c0 40.186 15.652 77.97 44.073 106.39 28.422 28.422 66.205 44.075 106.39 44.075 40.187 0 77.97-15.653 106.392-44.074zm-185.4 110.186c0-40.186-15.652-77.97-44.074-106.391-28.422-28.422-66.205-44.074-106.39-44.074-33.723 0-65.59 10.885-92.152 31.482-25.753 19.968-44.601 48.187-53.074 79.458a151.73 151.73 0 0 0 -5.24 39.525c0 40.185 15.653 77.969 44.074 106.39a151.93 151.93 0 0 0 24.08 19.618 89.895 89.895 0 0 0 4.148-6.614 144.083 144.083 0 0 1 -22.77-18.555c-26.958-26.951-41.805-62.784-41.805-100.898 0-6.955.477-13.62 1.459-20.373a144.272 144.272 0 0 1 4.312-19.807l-.053-.014c8.482-28.988 26.475-55.075 50.667-73.458 24.99-18.991 54.83-29.028 86.295-29.028 38.1 0 73.924 14.838 100.876 41.782 26.958 26.95 41.805 62.784 41.805 100.898 0 78.674-64.006 142.68-142.681 142.68-2.704 0-5.394-.075-8.074-.223a161.306 161.306 0 0 1 -3.704 7.61c3.917.303 7.866.456 11.837.456 40.185 0 77.968-15.652 106.39-44.074 28.422-28.421 44.075-66.205 44.075-106.39zm-166.773 128.829a148.456 148.456 0 0 0 2.475-6.967c-2.654-.3-5.282-.684-7.883-1.151a140.488 140.488 0 0 1 -2.524 6.873c2.617.495 5.263.91 7.932 1.245zm-9.152 19.503a148.622 148.622 0 0 0 3.843-7.32c-2.7-.406-5.381-.89-8.04-1.448a141.226 141.226 0 0 1 -3.916 7.162c2.683.609 5.389 1.145 8.113 1.606zm-11.412-23.803a130.902 130.902 0 0 0 2.589-6.768 122.186 122.186 0 0 1 -6.86-2.223 121.516 121.516 0 0 1 -2.603 6.744 130.75 130.75 0 0 0 6.874 2.247zm-9.588 18.66a129.66 129.66 0 0 0 4.016-6.938 140.106 140.106 0 0 1 -6.932-2.347 121.71 121.71 0 0 1 -4.062 6.835 148.95 148.95 0 0 0 6.978 2.45zm-9.091-25.808a108.335 108.335 0 0 0 2.593-6.778 123.027 123.027 0 0 1 -5.97-3.074 101.986 101.986 0 0 1 -2.566 6.843 130.708 130.708 0 0 0 5.943 3.009zm-9.8 18.234a109.837 109.837 0 0 0 4.12-6.694 140.086 140.086 0 0 1 -5.944-3 102.057 102.057 0 0 1 -4.142 6.645 150.127 150.127 0 0 0 5.967 3.049zm-1.143-56.66c-22.486-18.951-36.797-47.315-36.797-78.955 0-56.924 46.31-103.235 103.234-103.235s103.235 46.31 103.235 103.235c0 55.575-44.146 101.035-99.21 103.157a163.856 163.856 0 0 1 -1.303 6.668c59.349-1.421 107.193-50.141 107.193-109.825 0-60.576-49.281-109.857-109.856-109.857-27.384 0-53.615 10.13-73.863 28.526-20.111 18.272-32.7 43.157-35.447 70.07l-.001.015c-.368 3.518-.547 7.197-.547 11.246 0 35.286 16.723 66.74 42.659 86.852.347-2.598.583-5.234.703-7.896zm18.274 12.339a102.65 102.65 0 0 1 -6.202-3.565 102.138 102.138 0 0 1 -1.128 7.02 110.175 110.175 0 0 0 6.089 3.33c.483-2.24.897-4.498 1.24-6.785zm18.958 7.734a102.845 102.845 0 0 1 -6.902-2.31 120.458 120.458 0 0 1 -1.365 6.535c2.256.824 4.55 1.575 6.872 2.25.518-2.137.983-4.298 1.395-6.475zm20.293 3.824c-2.628-.226-5.23-.55-7.8-.97a141.015 141.015 0 0 1 -1.388 6.474c2.578.43 5.183.77 7.818 1.018a148.5 148.5 0 0 0 1.37-6.522zm-10.213-88.786c-8.202-18.536-19.891-34.992-34.741-48.908l8.739-9.326c16.109 15.095 28.789 32.949 37.69 53.062 9.214 20.824 13.885 43.026 13.885 65.989 0 5.17-.238 10.306-.711 15.39 47.214-2.97 84.717-42.324 84.717-90.273 0-49.876-40.577-90.454-90.454-90.454-49.876 0-90.453 40.578-90.453 90.454 0 32.688 17.433 61.384 43.487 77.279.017-.798.026-1.594.026-2.396 0-25.961-9.243-51.193-26.027-71.048l9.76-8.251c18.732 22.159 29.047 50.322 29.047 79.299 0 2.939-.104 5.859-.308 8.746 2.294.95 4.64 1.808 7.024 2.569.324-3.73.489-7.503.489-11.315 0-34.418-13.333-66.865-37.544-91.365l9.09-8.982c26.59 26.907 41.234 62.545 41.234 100.347 0 4.823-.238 9.61-.708 14.346 2.564.426 5.158.743 7.788.948.507-5.05.763-10.15.763-15.294 0-21.171-4.305-41.632-12.793-60.817zm-110.775-14.126c0 44.793 22.792 84.365 57.385 107.727a89.163 89.163 0 0 0 2.443-7.111c-31.725-22.19-52.51-58.991-52.51-100.557 0-4.498.203-8.611.617-12.575 3.072-30.047 17.122-57.825 39.566-78.215 22.604-20.537 51.889-31.848 82.456-31.848 67.623 0 122.638 55.015 122.638 122.638 0 67.622-55.015 122.637-122.637 122.637l-.67-.002a162.55 162.55 0 0 1 -2.368 7.172c.99.022 1.983.033 2.979.033 71.627 0 129.9-58.272 129.9-129.9 0-71.626-58.273-129.898-129.9-129.898-28.648 0-55.814 9.136-78.562 26.423-22.026 16.738-38.408 40.479-46.13 66.854l.054.016a131.183 131.183 0 0 0 -3.932 18.056l-6.358-.916 6.357.925a127.343 127.343 0 0 0 -1.328 18.54zm-26.898 184.8c33.47 0 63.497-15.05 83.662-38.734a162.547 162.547 0 0 1 -6.036-3.195c-18.936 21.596-46.715 35.248-77.626 35.248-56.924 0-103.235-46.31-103.235-103.233 0-55.608 44.196-101.087 99.304-103.161.387-2.21.818-4.413 1.295-6.608-59.364 1.403-107.222 50.13-107.222 109.826 0 60.576 49.282 109.857 109.858 109.857zm41.427-69.312c-30.835-30.836-47.817-71.83-47.817-115.428 0-5.164.243-10.321.727-15.453-47.247 2.934-84.79 42.305-84.79 90.279 0 49.876 40.577 90.453 90.453 90.453 26.289 0 49.994-11.273 66.536-29.24a164.887 164.887 0 0 1 -25.11-20.611zm188.754-379.756c.745-2.43 1.548-4.84 2.407-7.231a140.233 140.233 0 0 0 -3.114-.034c-67.763 0-123.573 52.153-129.398 118.428a160.317 160.317 0 0 1 7.606-2.604c3.302-28.995 16.812-55.762 38.345-75.78 22.74-21.14 52.377-32.782 83.447-32.782.236 0 .472 0 .707.003zm-102.189 103.594c4.228-22.626 15.982-43.287 33.428-58.593a103.122 103.122 0 0 1 64.112-25.526c.389-2.23.824-4.453 1.305-6.666-26.868.636-52.385 10.995-72.11 29.332-18.034 16.766-29.787 38.814-33.655 62.832a162.45 162.45 0 0 1 6.92-1.38zm41.857-48.985c-14.216 12.47-24.117 28.993-28.416 47.18 5.094-.47 10.236-.708 15.422-.708 30.775 0 60.253 8.46 85.775 24.284-12.77-23.562-19.548-50.066-19.548-77.614 0-5.143.242-10.28.723-15.393a90.332 90.332 0 0 0 -53.956 22.25zm-46.768-38.366c-27.975 27.976-43.58 65.022-44.062 104.502a161.27 161.27 0 0 1 7.893-4.024c1.452-35.882 16.117-69.41 41.662-94.962 26.95-26.958 62.784-41.805 100.899-41.805 2.767 0 5.526.075 8.248.224a163.506 163.506 0 0 1 3.686-7.538 151.303 151.303 0 0 0 -11.934-.471c-40.187 0-77.97 15.652-106.392 44.074zm378.676-83.921c30.835 30.835 47.817 71.829 47.817 115.429s-16.982 84.593-47.817 115.428c-30.836 30.836-71.83 47.817-115.43 47.817-30.775 0-60.252-8.46-85.775-24.283 12.77 23.562 19.549 50.067 19.549 77.615 0 43.599-16.983 84.592-47.82 115.428-30.833 30.835-71.827 47.818-115.426 47.818-6.344 0-12.636-.361-18.846-1.07a164.638 164.638 0 0 1 -22.582 28.136c-30.835 30.835-71.828 47.817-115.428 47.817s-84.593-16.982-115.428-47.817c-30.836-30.836-47.818-71.83-47.818-115.43s16.982-84.591 47.818-115.427a164.385 164.385 0 0 1 30.668-24.147v2.356c0 3.976.896 7.76 2.485 11.2a151.907 151.907 0 0 0 -24.117 19.628c-28.421 28.422-44.073 66.206-44.073 106.39 0 40.187 15.652 77.97 44.073 106.392 28.422 28.422 66.206 44.074 106.392 44.074s77.969-15.652 106.39-44.074a152.183 152.183 0 0 0 17.743-21.29 161.31 161.31 0 0 1 -8.248-1.895 144.507 144.507 0 0 1 -15.068 17.692c-26.952 26.944-62.777 41.782-100.875 41.782-38.1 0-73.924-14.838-100.876-41.782-26.958-26.95-41.805-62.782-41.805-100.898 0-38.1 14.839-73.923 41.782-100.876a144.127 144.127 0 0 1 22.872-18.62 30.95 30.95 0 0 0 11.039 8.24c-37.672 22.768-62.912 64.119-62.912 111.256 0 71.626 58.273 129.9 129.9 129.9 41.819 0 79.089-19.867 102.864-50.657a161.292 161.292 0 0 1 -7.081-2.666c-22.493 28.06-57.048 46.06-95.725 46.06-67.623 0-122.638-55.015-122.638-122.637 0-47.17 26.772-88.196 65.915-108.704.624.04 1.25.068 1.88.068 8.355 0 15.862-3.574 21.084-9.275a122.327 122.327 0 0 1 34.46-4.723c.743-2.43 1.544-4.84 2.4-7.23a144.31 144.31 0 0 0 -3.16-.035c-9.666 0-19.087 1.07-28.156 3.082a28.55 28.55 0 0 0 1.956-10.402v-3.065a144.271 144.271 0 0 1 26.2-2.396c2.778 0 5.549.076 8.283.226a163.09 163.09 0 0 1 3.682-7.543 151.538 151.538 0 0 0 -11.906-.468c-8.896 0-17.674.77-26.26 2.273v-12.953a165.25 165.25 0 0 1 26.26-2.101c6.345 0 12.685.367 18.902 1.094 10.105-15.943 22.956-30.171 37.97-41.813a167.151 167.151 0 0 1 9.475-6.832 144.665 144.665 0 0 1 -.12-5.78c0-43.6 16.983-84.593 47.818-115.43 30.835-30.834 71.829-47.815 115.429-47.815 6.357 0 12.71.368 18.937 1.098 10.109-15.934 22.955-30.158 37.955-41.796 28.825-22.363 63.394-34.186 99.96-34.186h.003c43.6 0 84.593 16.982 115.429 47.817zm-224.681 104.241c-.367 3.518-.546 7.196-.546 11.245 0 60.575 49.281 109.857 109.857 109.857s109.857-49.282 109.857-109.857c0-60.576-49.28-109.857-109.857-109.857-27.412 0-53.659 10.131-73.906 28.527-20.109 18.271-32.682 43.153-35.402 70.064zm109.311 133.882c-67.623 0-122.638-55.014-122.638-122.637 0-4.49.201-8.599.614-12.558 3.04-30.055 17.076-57.837 39.525-78.23 22.603-20.539 51.903-31.85 82.5-31.85 67.622 0 122.637 55.015 122.637 122.638s-55.015 122.637-122.638 122.637zm-.058-213.148c-49.876 0-90.453 40.577-90.453 90.454 0 49.876 40.577 90.453 90.453 90.453s90.453-40.577 90.453-90.453c0-49.877-40.577-90.454-90.453-90.454zm0 193.688c-56.924 0-103.234-46.31-103.234-103.234 0-27.585 10.735-53.512 30.229-73.006 19.493-19.493 45.42-30.229 73.005-30.229 56.924 0 103.234 46.311 103.234 103.235 0 56.923-46.31 103.234-103.234 103.234zm-331.72-263.809c-18.243 0-33.115 14.874-33.115 33.114 0 18.242 14.872 33.114 33.114 33.114s33.114-14.873 33.114-33.114c0-18.24-14.872-33.114-33.114-33.114zm0 78.952c-25.272 0-45.837-20.566-45.837-45.838 0-25.27 20.565-45.837 45.836-45.837s45.837 20.567 45.837 45.838c0 25.27-20.507 45.837-45.837 45.837z" mask="url(#a)"/></g></svg>